<svg width="38" height="38" viewBox="0 0 38 38" fill="none" xmlns="http://www.w3.org/2000/svg">
<circle opacity="0.3" cx="19" cy="19" r="19" transform="rotate(-180 19 19)" fill="#1A83FF"/>
<circle cx="19" cy="19" r="15" fill="#1A83FF" stroke="white" stroke-width="2"/>
<path fill-rule="evenodd" clip-rule="evenodd" d="M22.5279 9C24.043 9 25.428 9.85601 26.1056 11.2111L28.3666 15.7331C28.7831 16.5663 29 17.4849 29 18.4164V27C29 28.1046 28.1046 29 27 29C25.8954 29 25 28.1046 25 27V25H13V27C13 28.1046 12.1046 29 11 29C9.89543 29 9 28.1046 9 27V18.4164C9 17.4849 9.21687 16.5663 9.63344 15.7331L11.8944 11.2111C12.572 9.85601 13.957 9 15.4721 9H22.5279ZM26 20H24C23.4477 20 23 20.4477 23 21C23 21.5128 23.386 21.9355 23.8834 21.9933L24 22H26C26.5523 22 27 21.5523 27 21C27 20.4872 26.614 20.0645 26.1166 20.0067L26 20ZM14 20H12C11.4477 20 11 20.4477 11 21C11 21.5128 11.386 21.9355 11.8834 21.9933L12 22H14C14.5523 22 15 21.5523 15 21C15 20.4872 14.614 20.0645 14.1166 20.0067L14 20ZM22.7639 11H15.2361C14.5326 11 13.8853 11.369 13.5251 11.9643L13.4472 12.1056L11 17H27L24.5528 12.1056C24.214 11.428 23.5215 11 22.7639 11Z" fill="white"/>
</svg>
