<svg width="38" height="38" viewBox="0 0 38 38" fill="none" xmlns="http://www.w3.org/2000/svg">
<circle opacity="0.3" cx="19" cy="19" r="19" transform="rotate(-180 19 19)" fill="#1A83FF"/>
<circle cx="19" cy="19" r="15" fill="#1A83FF" stroke="white" stroke-width="2"/>
<path fill-rule="evenodd" clip-rule="evenodd" d="M15.1707 11L15.2377 10.8278C15.6942 9.75341 16.7591 9 18 9C19.3062 9 20.4175 9.83481 20.8293 11H24C25.6569 11 27 12.3431 27 14V17.1707C28.1652 17.5825 29 18.6938 29 20C29 21.293 28.1794 22.4032 27 22.8231V26C27 27.6569 25.6569 29 24 29H21C20.4872 29 20.0645 28.614 20.0067 28.1166L19.9945 27.8507C19.9182 26.8159 19.0544 26 18 26C16.8954 26 16 26.8954 16 28C16 28.5523 15.5523 29 15 29H12C10.3431 29 9 27.6569 9 26V23C9 22.4872 9.38604 22.0645 9.88338 22.0067L10.1493 21.9945C11.1841 21.9182 12 21.0544 12 20C12 18.8954 11.1046 18 10 18C9.44772 18 9 17.5523 9 17V14C9 12.3431 10.3431 11 12 11H15.1707ZM24 27C24.5523 27 25 26.5523 25 26V22C25 21.462 25.4256 21.0204 25.9633 21.0007L26.0757 20.9972C26.5945 20.9589 27 20.5243 27 20C27 19.4872 26.614 19.0645 26.1166 19.0067L25.8834 18.9933C25.386 18.9355 25 18.5128 25 18V14C25 13.4477 24.5523 13 24 13H20C19.4872 13 19.0645 12.614 19.0067 12.1166L18.9933 11.8834C18.9355 11.386 18.5128 11 18 11C17.4872 11 17.0645 11.386 17.0067 11.8834L16.9933 12.1166C16.9355 12.614 16.5128 13 16 13H12C11.4477 13 11 13.4477 11 14V16.126C12.7252 16.5701 14 18.1362 14 20C14 21.8638 12.7252 23.4299 11 23.874V26C11 26.5523 11.4477 27 12 27H14.126C14.5701 25.2748 16.1362 24 18 24C19.7948 24 21.3135 25.1821 21.8201 26.8102L21.874 27H24Z" fill="white"/>
</svg>
