<svg width="38" height="38" viewBox="0 0 38 38" fill="none" xmlns="http://www.w3.org/2000/svg">
<circle opacity="0.3" cx="19" cy="19" r="19" transform="rotate(-180 19 19)" fill="#1A83FF"/>
<circle cx="19" cy="19" r="15" fill="#1A83FF" stroke="white" stroke-width="2"/>
<path fill-rule="evenodd" clip-rule="evenodd" d="M22 27C22.5523 27 23 27.4477 23 28C23 28.5523 22.5523 29 22 29H16C15.4477 29 15 28.5523 15 28C15 27.4477 15.4477 27 16 27H22ZM18.9997 9C23.7126 9 27 11.8412 27 16.3786C27 18.2295 26.3164 19.7626 25.0131 21.4493L24.7768 21.7486C24.5676 22.0081 23.7725 22.9414 23.5047 23.2716L23.3528 23.4673C23.1422 23.7498 23.033 23.9444 23.004 24.0468L22.9794 24.2022C22.8851 24.6613 22.4794 25 22 25H16C15.5206 25 15.1149 24.6613 15.0206 24.2022L14.996 24.0468C14.967 23.9444 14.8577 23.7498 14.6472 23.4673L14.4953 23.2716L13.2232 21.7485L12.9869 21.4492C11.6837 19.7625 11 18.2294 11 16.3787C11 11.8413 14.2873 9 18.9997 9ZM18.9997 11C15.3324 11 13 13.0159 13 16.3787C13 17.7003 13.5127 18.8555 14.563 20.2179L14.7802 20.4932C14.9488 20.7023 15.6395 21.514 15.9811 21.9294L16.1276 22.1107C16.3796 22.4337 16.5765 22.7224 16.7194 23H21.2806L21.3728 22.8319C21.5044 22.6055 21.6708 22.3691 21.8724 22.1107L22.4446 21.4189C22.763 21.0399 23.1074 20.6327 23.2198 20.4933L23.437 20.2179C24.4873 18.8555 25 17.7004 25 16.3787C25 13.0158 22.6676 11 18.9997 11Z" fill="white"/>
</svg>
