<svg width="38" height="38" viewBox="0 0 38 38" fill="none" xmlns="http://www.w3.org/2000/svg">
<circle opacity="0.3" cx="19" cy="19" r="19" transform="rotate(-180 19 19)" fill="#1A83FF"/>
<circle cx="19" cy="19" r="15" fill="#1A83FF" stroke="white" stroke-width="2"/>
<path fill-rule="evenodd" clip-rule="evenodd" d="M17.8976 9.00199L20.0201 9.00189C20.0843 9.00487 20.1406 9.01221 20.2197 9.02944C20.8002 9.15583 21.0209 9.36426 21.5611 10.6407L21.6491 10.8513L21.9886 11.6925L22.0165 11.704L22.4539 11.506C23.4066 11.08 23.8976 10.9005 24.2278 10.8505L24.2962 10.8417L24.4209 10.8349C24.7182 10.8349 25.021 10.9402 25.2528 11.1236L25.3624 11.2217L26.7193 12.573L26.8137 12.6727C27.2399 13.1422 27.2797 13.4751 26.8082 14.6882L26.6513 15.0796L26.2815 15.9546L26.2886 15.9717L27.1357 16.288L27.5441 16.4494C28.599 16.8807 28.8158 17.1106 28.9568 17.6386C28.9852 17.7451 28.9953 17.8176 28.9986 17.9077L29 18.0055V19.9132C29 20.0488 28.9954 20.1254 28.962 20.2594C28.8216 20.8231 28.6132 21.0378 27.3455 21.5733L27.1363 21.6606L26.301 21.9977L26.2952 22.0118L26.5972 22.6717C27.3484 24.3412 27.3746 24.7072 26.8809 25.257L26.8192 25.324L25.4263 26.7158C25.1769 26.9679 24.8217 27.1067 24.4779 27.1067C24.186 27.1067 23.7275 26.9679 22.9459 26.6545L22.5275 26.4831L22.0509 26.2815L22.0236 26.2928L21.7773 26.9533C21.1744 28.5419 20.9678 28.7998 20.3484 28.9596C20.2569 28.9832 20.1914 28.9933 20.1171 28.9974L19.9945 29H18.0856C17.9665 29 17.8993 28.9964 17.7809 28.9708C17.2007 28.845 16.9791 28.6361 16.4379 27.3589L16.3497 27.1482L16.0096 26.3066L15.9834 26.2957L15.3481 26.5813C14.332 27.0287 13.8918 27.1648 13.5781 27.1648C13.2843 27.1648 12.9851 27.0616 12.7471 26.8765L12.6335 26.7772L11.2784 25.4239L11.1237 25.2552C10.7521 24.8179 10.7338 24.4789 11.1899 23.3119L11.4276 22.7277L11.7178 22.0457L11.7117 22.031L11.0548 21.7862C9.73708 21.2862 9.33098 21.0559 9.138 20.6354L9.0858 20.503L9.0422 20.3566C9.01752 20.2629 9.00699 20.1958 9.00272 20.1195L9 19.9935V18.0847C9 17.948 9.00474 17.8707 9.03877 17.7355C9.16566 17.2316 9.34576 17.0077 10.2945 16.5826L10.6877 16.4128L11.6973 16.0045L11.7042 15.9877L11.3267 15.1548C10.7038 13.7399 10.6522 13.3091 11.0453 12.828L11.099 12.7648L11.2264 12.6299L12.5762 11.2831C12.8235 11.0345 13.1772 10.8943 13.5215 10.8943C13.7678 10.8943 14.1293 10.9917 14.7081 11.2109L15.2903 11.4417L15.9503 11.7183L15.9773 11.7071L16.2255 11.0423C16.8341 9.44226 17.0513 9.17469 17.6932 9.03099C17.7742 9.01286 17.8319 9.00513 17.8976 9.00199ZM19.523 11H18.4081L18.2509 11.3685C18.1912 11.515 18.1238 11.6862 18.0478 11.8848L17.6993 12.8169C17.6157 13.0376 17.4574 13.2204 17.2538 13.3347L17.1483 13.386L16.3292 13.7269C16.1224 13.813 15.894 13.8266 15.6804 13.768L15.5543 13.7242L14.5853 13.3157L14.0618 13.1069L13.71 12.9771L12.9198 13.7655L13.0128 14.0004C13.0491 14.0889 13.0909 14.1878 13.1386 14.298L13.2997 14.6633L13.7037 15.5464C13.8004 15.7567 13.8206 15.9926 13.7635 16.2141L13.72 16.3449L13.385 17.1588C13.2964 17.3743 13.1357 17.5509 12.9324 17.6598L12.8273 17.7085L11.7398 18.1457L11.1961 18.3787L11 18.4695V19.5997L11.2346 19.7014C11.3235 19.7386 11.4232 19.7791 11.5348 19.8233L11.9058 19.9672L12.8073 20.302C13.0346 20.384 13.2232 20.5449 13.3402 20.7532L13.3925 20.8612L13.7275 21.6728C13.8136 21.8812 13.8262 22.1112 13.7657 22.3257L13.7206 22.4523L13.3318 23.3646L13.088 23.9664L12.9692 24.286L13.7595 25.0752L13.9948 24.9822C14.0815 24.9469 14.1765 24.9073 14.28 24.8631L15.0058 24.543L15.5293 24.3021C15.7483 24.1974 15.9966 24.1766 16.228 24.2408L16.342 24.28L17.1659 24.6202C17.3843 24.7104 17.5625 24.8744 17.6707 25.0816L17.7189 25.1887L17.9239 25.7061L18.2157 26.4157L18.3846 26.8034L18.4762 27H19.5944L19.7541 26.6235L19.9621 26.0924L20.3007 25.1844C20.3843 24.9617 20.5438 24.7774 20.7492 24.6626L20.8556 24.6112L21.676 24.2726C21.8804 24.1883 22.1058 24.1745 22.317 24.2313L22.4417 24.2738L23.2143 24.6015L23.7781 24.8311L24.0867 24.9501L24.2903 25.0238L25.0815 24.2341L24.929 23.8578L24.7004 23.3363L24.2956 22.4539C24.1985 22.2432 24.1782 22.0068 24.2356 21.7849L24.2793 21.6538L24.6137 20.8434C24.7019 20.6296 24.861 20.4541 25.0624 20.3452L25.1665 20.2964L26.0876 19.9262L26.5578 19.729L26.6871 19.6728L27 19.5297V18.4006L26.6863 18.2667L26.2615 18.0986L25.1891 17.6994C24.9623 17.6169 24.7744 17.4557 24.658 17.2473L24.6059 17.1393L24.2715 16.3245C24.1862 16.1166 24.1738 15.8874 24.2341 15.6736L24.279 15.5474L24.5895 14.8215C24.6703 14.6295 24.7406 14.4593 24.8014 14.3089L24.9103 14.0337L25.029 13.7122L24.2384 12.9248L24.0029 13.018C23.8727 13.0711 23.7235 13.1341 23.5542 13.2077L23.3782 13.2848L22.4554 13.7034C22.2454 13.7996 22.0101 13.8196 21.7891 13.7626L21.6586 13.7192L20.8352 13.3807C20.6196 13.2921 20.443 13.1316 20.334 12.9283L20.2853 12.8232L19.9942 12.0948L19.7832 11.5845L19.6663 11.3131L19.523 11ZM19.0005 15C21.2066 15 23 16.793 23 18.9991C23 21.2054 21.2065 23 19.0005 23C16.7938 23 15 21.2057 15 18.9991C15 16.7927 16.7937 15 19.0005 15ZM19.0005 17C17.898 17 17 17.8975 17 18.9991C17 20.1013 17.8985 21 19.0005 21C20.1016 21 21 20.1011 21 18.9991C21 17.8977 20.1021 17 19.0005 17Z" fill="white"/>
</svg>
