<svg width="99" height="20" viewBox="0 0 99 20" fill="none" xmlns="http://www.w3.org/2000/svg">
<path fill-rule="evenodd" clip-rule="evenodd" d="M9.06007 2L10.9391 2C12.2793 2.00303 12.587 2.01484 13.2982 2.04728C14.1497 2.08612 14.7313 2.22138 15.2402 2.41917C15.7663 2.62359 16.2124 2.89715 16.6572 3.34192C17.102 3.78672 17.3756 4.23289 17.58 4.75899C17.7778 5.26787 17.913 5.84946 17.9519 6.70101C17.9895 7.5259 17.9994 7.80798 18 9.78856V10.2106C17.9994 12.1912 17.9895 12.4733 17.9519 13.2982C17.913 14.1497 17.7778 14.7313 17.58 15.2402C17.3756 15.7663 17.102 16.2124 16.6572 16.6572C16.2124 17.102 15.7663 17.3756 15.2402 17.58C14.7313 17.7778 14.1497 17.913 13.2982 17.9519C12.4733 17.9895 12.1912 17.9994 10.2106 18H9.78856C7.80798 17.9994 7.5259 17.9895 6.70101 17.9519C5.84946 17.913 5.26787 17.7778 4.75899 17.58C4.23289 17.3756 3.78672 17.102 3.34192 16.6572C2.89715 16.2124 2.62359 15.7663 2.41917 15.2402C2.22138 14.7313 2.08612 14.1497 2.04728 13.2982C2.01484 12.587 2.00303 12.2793 2 10.9391L2 9.06007C2.00303 7.71984 2.01484 7.41212 2.04728 6.70101C2.08612 5.84946 2.22138 5.26787 2.41917 4.75899C2.62359 4.23289 2.89715 3.78672 3.34192 3.34192C3.78672 2.89715 4.23289 2.62359 4.75899 2.41917C5.26787 2.22138 5.84946 2.08612 6.70101 2.04728C7.41212 2.01484 7.71984 2.00303 9.06007 2L10.9391 2L9.06007 2ZM10.5864 3.44092H9.41276C7.80686 3.44259 7.52597 3.45267 6.76672 3.48731C5.98668 3.52288 5.56306 3.65321 5.28115 3.76278C4.90771 3.90791 4.6412 4.08128 4.36125 4.36125C4.08128 4.6412 3.90791 4.90771 3.76278 5.28115C3.65321 5.56306 3.52288 5.98668 3.48731 6.76672C3.45267 7.52597 3.44259 7.80686 3.44092 9.41276V10.5864C3.44259 12.1923 3.45267 12.4732 3.48731 13.2325C3.52288 14.0125 3.65321 14.4361 3.76278 14.718C3.90791 15.0915 4.08131 15.358 4.36125 15.6379C4.6412 15.9179 4.90771 16.0913 5.28115 16.2364C5.56306 16.346 5.98668 16.4763 6.76672 16.5119C7.61024 16.5504 7.86322 16.5585 9.9996 16.5585C12.1359 16.5585 12.389 16.5504 13.2325 16.5119C14.0125 16.4763 14.4361 16.346 14.718 16.2364C15.0915 16.0913 15.358 15.9179 15.6379 15.6379C15.9179 15.358 16.0913 15.0915 16.2364 14.718C16.346 14.4361 16.4763 14.0125 16.5119 13.2325C16.5504 12.3888 16.5585 12.1358 16.5585 9.9996C16.5585 7.86338 16.5504 7.61033 16.5119 6.76672C16.4763 5.98668 16.346 5.56306 16.2364 5.28115C16.0913 4.90771 15.9179 4.6412 15.6379 4.36125C15.358 4.08128 15.0915 3.90791 14.718 3.76278C14.4361 3.65321 14.0125 3.52288 13.2325 3.48731C12.4732 3.45267 12.1923 3.44259 10.5864 3.44092ZM9.9996 5.99936C12.2089 5.99936 13.9998 7.79031 13.9998 9.9996C13.9998 12.2089 12.2089 13.9998 9.9996 13.9998C7.79031 13.9998 5.99936 12.2089 5.99936 9.9996C5.99936 7.79031 7.79031 5.99936 9.9996 5.99936ZM9.9996 7.40295C8.56549 7.40295 7.40295 8.56549 7.40295 9.9996C7.40295 11.4337 8.56549 12.5962 9.9996 12.5962C11.4337 12.5962 12.5962 11.4337 12.5962 9.9996C12.5962 8.56549 11.4337 7.40295 9.9996 7.40295ZM14.3331 4.66595C14.8855 4.66595 15.3332 5.1137 15.3332 5.66603C15.3332 6.21835 14.8855 6.66607 14.3331 6.66607C13.7809 6.66607 13.3331 6.21835 13.3331 5.66603C13.3331 5.1137 13.7809 4.66595 14.3331 4.66595Z" fill="#263238"/>
<path d="M25.316 5.2L27.136 5.2L27.136 15H25.316L25.316 5.2ZM33.8607 7.44C34.8034 7.44 35.5594 7.71533 36.1287 8.266C36.698 8.81667 36.9827 9.63333 36.9827 10.716V15H35.2327V10.94C35.2327 10.2867 35.0787 9.79667 34.7707 9.47C34.4627 9.134 34.024 8.966 33.4547 8.966C32.8107 8.966 32.302 9.162 31.9287 9.554C31.5554 9.93667 31.3687 10.492 31.3687 11.22V15H29.6187L29.6187 7.524H31.2847V8.49C31.574 8.14467 31.938 7.88333 32.3767 7.706C32.8154 7.52867 33.31 7.44 33.8607 7.44ZM41.5127 15.098C40.906 15.098 40.3134 15.0187 39.7347 14.86C39.156 14.7013 38.694 14.5007 38.3487 14.258L39.0207 12.928C39.3567 13.152 39.758 13.334 40.2247 13.474C40.7007 13.6047 41.1674 13.67 41.6247 13.67C42.67 13.67 43.1927 13.3947 43.1927 12.844C43.1927 12.5827 43.0574 12.4007 42.7867 12.298C42.5254 12.1953 42.1007 12.0973 41.5127 12.004C40.8967 11.9107 40.3927 11.8033 40.0007 11.682C39.618 11.5607 39.282 11.3507 38.9927 11.052C38.7127 10.744 38.5727 10.3193 38.5727 9.778C38.5727 9.06867 38.8667 8.504 39.4547 8.084C40.052 7.65467 40.8547 7.44 41.8627 7.44C42.376 7.44 42.8894 7.50067 43.4027 7.622C43.916 7.734 44.336 7.888 44.6627 8.084L43.9907 9.414C43.356 9.04067 42.642 8.854 41.8487 8.854C41.3354 8.854 40.9434 8.93333 40.6727 9.092C40.4114 9.24133 40.2807 9.442 40.2807 9.694C40.2807 9.974 40.4207 10.1747 40.7007 10.296C40.99 10.408 41.4334 10.5153 42.0307 10.618C42.628 10.7113 43.118 10.8187 43.5007 10.94C43.8834 11.0613 44.21 11.2667 44.4807 11.556C44.7607 11.8453 44.9007 12.256 44.9007 12.788C44.9007 13.488 44.5974 14.048 43.9907 14.468C43.384 14.888 42.558 15.098 41.5127 15.098ZM50.9018 14.594C50.6964 14.762 50.4444 14.888 50.1458 14.972C49.8564 15.056 49.5484 15.098 49.2218 15.098C48.4004 15.098 47.7658 14.8833 47.3178 14.454C46.8698 14.0247 46.6458 13.3993 46.6458 12.578V8.98H45.4138V7.58H46.6458V5.872L48.3958 5.872V7.58H50.3978V8.98L48.3958 8.98V12.536C48.3958 12.9 48.4844 13.18 48.6618 13.376C48.8391 13.5627 49.0958 13.656 49.4318 13.656C49.8238 13.656 50.1504 13.5533 50.4118 13.348L50.9018 14.594ZM55.1974 7.44C56.2987 7.44 57.1387 7.706 57.7174 8.238C58.3054 8.76067 58.5994 9.554 58.5994 10.618L58.5994 15H56.9474L56.9474 14.09C56.7327 14.4167 56.4247 14.6687 56.0234 14.846C55.6314 15.014 55.1554 15.098 54.5954 15.098C54.0354 15.098 53.5454 15.0047 53.1254 14.818C52.7054 14.622 52.3787 14.356 52.1454 14.02C51.9214 13.6747 51.8094 13.2873 51.8094 12.858C51.8094 12.186 52.0567 11.6493 52.5514 11.248C53.0554 10.8373 53.844 10.632 54.9174 10.632L56.8494 10.632V10.52C56.8494 9.99733 56.6907 9.596 56.3734 9.316C56.0654 9.036 55.6034 8.896 54.9874 8.896C54.5674 8.896 54.152 8.96133 53.7414 9.092C53.34 9.22267 52.9994 9.40467 52.7194 9.638L52.0334 8.364C52.4254 8.06533 52.8967 7.83667 53.4474 7.678C53.998 7.51933 54.5814 7.44 55.1974 7.44ZM54.9594 13.824C55.398 13.824 55.7854 13.726 56.1214 13.53C56.4667 13.3247 56.7094 13.0353 56.8494 12.662V11.794L55.0434 11.794C54.0354 11.794 53.5314 12.1253 53.5314 12.788C53.5314 13.1053 53.6574 13.3573 53.9094 13.544C54.1614 13.7307 54.5114 13.824 54.9594 13.824ZM68.3336 7.524V13.866C68.3336 16.498 66.9896 17.814 64.3016 17.814C63.583 17.814 62.9016 17.7207 62.2576 17.534C61.6136 17.3567 61.0816 17.0953 60.6616 16.75L61.4456 15.434C61.7723 15.7047 62.183 15.9193 62.6776 16.078C63.1816 16.246 63.6903 16.33 64.2036 16.33C65.025 16.33 65.627 16.1433 66.0096 15.77C66.3923 15.3967 66.5836 14.8273 66.5836 14.062V13.67C66.285 13.9967 65.921 14.244 65.4916 14.412C65.0623 14.58 64.591 14.664 64.0776 14.664C63.3683 14.664 62.7243 14.5147 62.1456 14.216C61.5763 13.908 61.1236 13.4787 60.7876 12.928C60.461 12.3773 60.2976 11.7473 60.2976 11.038C60.2976 10.3287 60.461 9.70333 60.7876 9.162C61.1236 8.61133 61.5763 8.18667 62.1456 7.888C62.7243 7.58933 63.3683 7.44 64.0776 7.44C64.619 7.44 65.109 7.52867 65.5476 7.706C65.9956 7.88333 66.369 8.154 66.6676 8.518V7.524H68.3336ZM64.3436 13.18C65.0063 13.18 65.5476 12.984 65.9676 12.592C66.397 12.1907 66.6116 11.6727 66.6116 11.038C66.6116 10.4127 66.397 9.904 65.9676 9.512C65.5476 9.12 65.0063 8.924 64.3436 8.924C63.6716 8.924 63.121 9.12 62.6916 9.512C62.2716 9.904 62.0616 10.4127 62.0616 11.038C62.0616 11.6727 62.2716 12.1907 62.6916 12.592C63.121 12.984 63.6716 13.18 64.3436 13.18ZM72.3003 8.616C72.8043 7.832 73.691 7.44 74.9603 7.44V9.106C74.811 9.078 74.6757 9.064 74.5543 9.064C73.873 9.064 73.341 9.26467 72.9583 9.666C72.5757 10.058 72.3843 10.6273 72.3843 11.374V15L70.6343 15V7.524H72.3003V8.616ZM79.2599 7.44C80.3612 7.44 81.2012 7.706 81.7799 8.238C82.3679 8.76067 82.6619 9.554 82.6619 10.618V15H81.0099V14.09C80.7952 14.4167 80.4872 14.6687 80.0859 14.846C79.6939 15.014 79.2179 15.098 78.6579 15.098C78.0979 15.098 77.6079 15.0047 77.1879 14.818C76.7679 14.622 76.4412 14.356 76.2079 14.02C75.9839 13.6747 75.8719 13.2873 75.8719 12.858C75.8719 12.186 76.1192 11.6493 76.6139 11.248C77.1179 10.8373 77.9065 10.632 78.9799 10.632H80.9119V10.52C80.9119 9.99733 80.7532 9.596 80.4359 9.316C80.1279 9.036 79.6659 8.896 79.0499 8.896C78.6299 8.896 78.2145 8.96133 77.8039 9.092C77.4025 9.22267 77.0619 9.40467 76.7819 9.638L76.0959 8.364C76.4879 8.06533 76.9592 7.83667 77.5099 7.678C78.0605 7.51933 78.6439 7.44 79.2599 7.44ZM79.0219 13.824C79.4605 13.824 79.8479 13.726 80.1839 13.53C80.5292 13.3247 80.7719 13.0353 80.9119 12.662V11.794H79.1059C78.0979 11.794 77.5939 12.1253 77.5939 12.788C77.5939 13.1053 77.7199 13.3573 77.9719 13.544C78.2239 13.7307 78.5739 13.824 79.0219 13.824ZM94.3438 7.44C95.2864 7.44 96.0331 7.71533 96.5838 8.266C97.1344 8.80733 97.4098 9.624 97.4098 10.716V15H95.6598V10.94C95.6598 10.2867 95.5151 9.79667 95.2258 9.47C94.9364 9.134 94.5211 8.966 93.9798 8.966C93.3918 8.966 92.9204 9.162 92.5658 9.554C92.2111 9.93667 92.0338 10.4873 92.0338 11.206V15H90.2838V10.94C90.2838 10.2867 90.1391 9.79667 89.8498 9.47C89.5604 9.134 89.1451 8.966 88.6038 8.966C88.0064 8.966 87.5304 9.15733 87.1758 9.54C86.8304 9.92267 86.6578 10.478 86.6578 11.206V15L84.9078 15V7.524H86.5738V8.476C86.8538 8.14 87.2038 7.88333 87.6238 7.706C88.0438 7.52867 88.5104 7.44 89.0238 7.44C89.5838 7.44 90.0784 7.54733 90.5078 7.762C90.9464 7.96733 91.2918 8.27533 91.5438 8.686C91.8518 8.294 92.2484 7.99067 92.7338 7.776C93.2191 7.552 93.7558 7.44 94.3438 7.44Z" fill="#263238"/>
</svg>
