<svg width="175" height="40" viewBox="0 0 175 40" fill="none" xmlns="http://www.w3.org/2000/svg">
<rect width="40" height="40" rx="6" fill="url(#paint0_linear_1922_32)"/>
<path fill-rule="evenodd" clip-rule="evenodd" d="M11.1167 8.99994C10.638 8.99994 10.25 9.38796 10.25 9.86661V34.1333C10.25 34.612 10.638 35 11.1167 35H28.8834C29.362 35 29.75 34.612 29.75 34.1333V9.86661C29.75 9.38796 29.362 8.99994 28.8834 8.99994H11.1167ZM26.5 12.2499H13.5V31.75H26.5V12.2499Z" fill="white"/>
<rect x="19" width="2" height="9" fill="white"/>
<rect x="19" y="35" width="2" height="5" fill="white"/>
<rect x="17.8334" y="15.4999" width="4.33334" height="4.33334" rx="2.16667" fill="white"/>
<path d="M16.75 21.7833C16.75 21.3046 17.138 20.9166 17.6167 20.9166H22.3833C22.862 20.9166 23.25 21.3046 23.25 21.7833V31.75H16.75V21.7833Z" fill="white"/>
<path d="M56.608 25.5C56.488 25.5 56.386 25.458 56.302 25.374C56.218 25.29 56.176 25.188 56.176 25.068V15.114H52.846C52.726 15.114 52.624 15.072 52.54 14.988C52.456 14.904 52.414 14.802 52.414 14.682V13.35C52.414 13.218 52.45 13.11 52.522 13.026C52.606 12.942 52.714 12.9 52.846 12.9H62.026C62.158 12.9 62.266 12.942 62.35 13.026C62.434 13.11 62.476 13.218 62.476 13.35V14.682C62.476 14.802 62.434 14.904 62.35 14.988C62.266 15.072 62.158 15.114 62.026 15.114H58.714V25.068C58.714 25.188 58.672 25.29 58.588 25.374C58.504 25.458 58.396 25.5 58.264 25.5H56.608ZM65.6405 25.5C65.4845 25.5 65.3585 25.464 65.2625 25.392C65.1785 25.308 65.1065 25.194 65.0465 25.05L62.4725 16.698C62.4605 16.662 62.4545 16.608 62.4545 16.536C62.4545 16.428 62.4905 16.338 62.5625 16.266C62.6465 16.182 62.7365 16.14 62.8325 16.14H64.1645C64.2965 16.14 64.4045 16.176 64.4885 16.248C64.5725 16.32 64.6265 16.398 64.6505 16.482L66.4145 22.44L68.2865 16.536C68.3225 16.428 68.3825 16.338 68.4665 16.266C68.5625 16.182 68.6825 16.14 68.8265 16.14H69.7265C69.8705 16.14 69.9845 16.182 70.0685 16.266C70.1645 16.338 70.2305 16.428 70.2665 16.536L72.1385 22.44L73.9025 16.482C73.9145 16.398 73.9625 16.32 74.0465 16.248C74.1425 16.176 74.2505 16.14 74.3705 16.14H75.7025C75.8105 16.14 75.9005 16.182 75.9725 16.266C76.0565 16.338 76.0985 16.428 76.0985 16.536L76.0625 16.698L73.4885 25.05C73.4405 25.194 73.3685 25.308 73.2725 25.392C73.1885 25.464 73.0685 25.5 72.9125 25.5H71.7425C71.4305 25.5 71.2325 25.35 71.1485 25.05L69.2765 19.362L67.4045 25.05C67.3085 25.35 67.1045 25.5 66.7925 25.5H65.6405ZM81.7264 25.68C80.3224 25.68 79.2364 25.32 78.4684 24.6C77.7004 23.868 77.2864 22.872 77.2264 21.612L77.2084 20.82L77.2264 20.028C77.2864 18.78 77.7064 17.79 78.4864 17.058C79.2664 16.326 80.3464 15.96 81.7264 15.96C83.1064 15.96 84.1864 16.326 84.9664 17.058C85.7464 17.79 86.1664 18.78 86.2264 20.028C86.2384 20.172 86.2444 20.436 86.2444 20.82C86.2444 21.204 86.2384 21.468 86.2264 21.612C86.1664 22.872 85.7524 23.868 84.9844 24.6C84.2164 25.32 83.1304 25.68 81.7264 25.68ZM81.7264 23.898C82.3624 23.898 82.8544 23.7 83.2024 23.304C83.5504 22.896 83.7424 22.302 83.7784 21.522C83.7904 21.402 83.7964 21.168 83.7964 20.82C83.7964 20.472 83.7904 20.238 83.7784 20.118C83.7424 19.338 83.5504 18.75 83.2024 18.354C82.8544 17.946 82.3624 17.742 81.7264 17.742C81.0904 17.742 80.5984 17.946 80.2504 18.354C79.9024 18.75 79.7104 19.338 79.6744 20.118L79.6564 20.82L79.6744 21.522C79.7104 22.302 79.9024 22.896 80.2504 23.304C80.5984 23.7 81.0904 23.898 81.7264 23.898ZM88.7968 14.592C88.6768 14.592 88.5748 14.55 88.4908 14.466C88.4068 14.382 88.3648 14.28 88.3648 14.16V12.864C88.3648 12.744 88.4068 12.642 88.4908 12.558C88.5748 12.474 88.6768 12.432 88.7968 12.432H90.4888C90.6088 12.432 90.7108 12.474 90.7948 12.558C90.8908 12.642 90.9388 12.744 90.9388 12.864V14.16C90.9388 14.28 90.8968 14.382 90.8128 14.466C90.7288 14.55 90.6208 14.592 90.4888 14.592H88.7968ZM86.6908 28.92C86.5588 28.92 86.4568 28.878 86.3848 28.794C86.3008 28.722 86.2588 28.62 86.2588 28.488V27.462C86.2588 27.33 86.3008 27.222 86.3848 27.138C86.4688 27.054 86.5708 27.012 86.6908 27.012H87.1588C87.6628 27.012 87.9988 26.88 88.1668 26.616C88.3468 26.364 88.4368 25.986 88.4368 25.482V16.572C88.4368 16.44 88.4788 16.338 88.5628 16.266C88.6468 16.182 88.7488 16.14 88.8688 16.14H90.4348C90.5548 16.14 90.6568 16.182 90.7408 16.266C90.8248 16.35 90.8668 16.452 90.8668 16.572V25.518C90.8668 26.598 90.5728 27.432 89.9848 28.02C89.4088 28.62 88.5388 28.92 87.3748 28.92H86.6908ZM95.9841 25.68C95.3721 25.68 94.8081 25.56 94.2921 25.32C93.7881 25.068 93.3861 24.732 93.0861 24.312C92.7981 23.892 92.6541 23.43 92.6541 22.926C92.6541 22.11 92.9841 21.45 93.6441 20.946C94.3041 20.442 95.2101 20.1 96.3621 19.92L98.8281 19.56V19.182C98.8281 18.654 98.6961 18.258 98.4321 17.994C98.1681 17.73 97.7421 17.598 97.1541 17.598C96.7581 17.598 96.4341 17.676 96.1821 17.832C95.9421 17.976 95.7501 18.12 95.6061 18.264C95.4621 18.42 95.3661 18.522 95.3181 18.57C95.2701 18.714 95.1801 18.786 95.0481 18.786H93.6621C93.5541 18.786 93.4581 18.75 93.3741 18.678C93.3021 18.606 93.2661 18.51 93.2661 18.39C93.2781 18.09 93.4221 17.748 93.6981 17.364C93.9861 16.98 94.4241 16.65 95.0121 16.374C95.6001 16.098 96.3201 15.96 97.1721 15.96C98.5881 15.96 99.6201 16.278 100.268 16.914C100.916 17.55 101.24 18.384 101.24 19.416V25.068C101.24 25.188 101.198 25.29 101.114 25.374C101.042 25.458 100.94 25.5 100.808 25.5H99.3501C99.2301 25.5 99.1281 25.458 99.0441 25.374C98.9601 25.29 98.9181 25.188 98.9181 25.068V24.366C98.6541 24.75 98.2761 25.068 97.7841 25.32C97.3041 25.56 96.7041 25.68 95.9841 25.68ZM96.5961 23.97C97.2561 23.97 97.7961 23.754 98.2161 23.322C98.6361 22.89 98.8461 22.26 98.8461 21.432V21.054L97.0461 21.342C96.3501 21.45 95.8221 21.624 95.4621 21.864C95.1141 22.104 94.9401 22.398 94.9401 22.746C94.9401 23.13 95.1021 23.43 95.4261 23.646C95.7501 23.862 96.1401 23.97 96.5961 23.97ZM106.017 25.5C105.861 25.5 105.735 25.464 105.639 25.392C105.555 25.308 105.483 25.194 105.423 25.05L102.849 16.698C102.837 16.662 102.831 16.608 102.831 16.536C102.831 16.428 102.867 16.338 102.939 16.266C103.023 16.182 103.113 16.14 103.209 16.14H104.541C104.673 16.14 104.781 16.176 104.865 16.248C104.949 16.32 105.003 16.398 105.027 16.482L106.791 22.44L108.663 16.536C108.699 16.428 108.759 16.338 108.843 16.266C108.939 16.182 109.059 16.14 109.203 16.14H110.103C110.247 16.14 110.361 16.182 110.445 16.266C110.541 16.338 110.607 16.428 110.643 16.536L112.515 22.44L114.279 16.482C114.291 16.398 114.339 16.32 114.423 16.248C114.519 16.176 114.627 16.14 114.747 16.14H116.079C116.187 16.14 116.277 16.182 116.349 16.266C116.433 16.338 116.475 16.428 116.475 16.536L116.439 16.698L113.865 25.05C113.817 25.194 113.745 25.308 113.649 25.392C113.565 25.464 113.445 25.5 113.289 25.5H112.119C111.807 25.5 111.609 25.35 111.525 25.05L109.653 19.362L107.781 25.05C107.685 25.35 107.481 25.5 107.169 25.5H106.017ZM118.587 14.592C118.467 14.592 118.365 14.55 118.281 14.466C118.197 14.382 118.155 14.28 118.155 14.16V12.864C118.155 12.744 118.197 12.642 118.281 12.558C118.365 12.474 118.467 12.432 118.587 12.432H120.225C120.345 12.432 120.447 12.474 120.531 12.558C120.627 12.642 120.675 12.744 120.675 12.864V14.16C120.675 14.28 120.633 14.382 120.549 14.466C120.465 14.55 120.357 14.592 120.225 14.592H118.587ZM118.659 25.5C118.539 25.5 118.437 25.458 118.353 25.374C118.269 25.29 118.227 25.188 118.227 25.068V16.572C118.227 16.452 118.269 16.35 118.353 16.266C118.437 16.182 118.539 16.14 118.659 16.14H120.153C120.285 16.14 120.387 16.182 120.459 16.266C120.543 16.338 120.585 16.44 120.585 16.572V25.068C120.585 25.188 120.543 25.29 120.459 25.374C120.387 25.458 120.285 25.5 120.153 25.5H118.659ZM123.405 25.5C123.285 25.5 123.183 25.458 123.099 25.374C123.015 25.29 122.973 25.188 122.973 25.068V16.572C122.973 16.452 123.015 16.35 123.099 16.266C123.183 16.182 123.285 16.14 123.405 16.14H124.881C125.001 16.14 125.103 16.182 125.187 16.266C125.271 16.35 125.313 16.452 125.313 16.572V17.31C126.021 16.41 127.023 15.96 128.319 15.96C129.423 15.96 130.299 16.326 130.947 17.058C131.595 17.778 131.919 18.762 131.919 20.01V25.068C131.919 25.188 131.877 25.29 131.793 25.374C131.721 25.458 131.619 25.5 131.487 25.5H129.903C129.783 25.5 129.681 25.458 129.597 25.374C129.513 25.29 129.471 25.188 129.471 25.068V20.118C129.471 19.41 129.297 18.864 128.949 18.48C128.613 18.084 128.121 17.886 127.473 17.886C126.837 17.886 126.333 18.084 125.961 18.48C125.601 18.876 125.421 19.422 125.421 20.118V25.068C125.421 25.188 125.379 25.29 125.295 25.374C125.223 25.458 125.121 25.5 124.989 25.5H123.405ZM137.68 25.68C136.468 25.68 135.538 25.29 134.89 24.51C134.242 23.73 133.894 22.692 133.846 21.396L133.828 20.802L133.846 20.226C133.882 18.966 134.224 17.94 134.872 17.148C135.532 16.356 136.468 15.96 137.68 15.96C138.844 15.96 139.768 16.356 140.452 17.148V13.152C140.452 13.02 140.494 12.918 140.578 12.846C140.662 12.762 140.764 12.72 140.884 12.72H142.414C142.546 12.72 142.648 12.762 142.72 12.846C142.804 12.918 142.846 13.02 142.846 13.152V25.068C142.846 25.188 142.804 25.29 142.72 25.374C142.648 25.458 142.546 25.5 142.414 25.5H140.992C140.872 25.5 140.77 25.458 140.686 25.374C140.602 25.29 140.56 25.188 140.56 25.068V24.402C139.876 25.254 138.916 25.68 137.68 25.68ZM138.346 23.754C139.042 23.754 139.558 23.532 139.894 23.088C140.23 22.644 140.416 22.098 140.452 21.45C140.464 21.306 140.47 21.072 140.47 20.748C140.47 20.436 140.464 20.208 140.452 20.064C140.428 19.464 140.236 18.954 139.876 18.534C139.528 18.102 139.018 17.886 138.346 17.886C137.05 17.886 136.36 18.684 136.276 20.28L136.258 20.82L136.276 21.36C136.36 22.956 137.05 23.754 138.346 23.754ZM147.963 25.68C147.351 25.68 146.787 25.56 146.271 25.32C145.767 25.068 145.365 24.732 145.065 24.312C144.777 23.892 144.633 23.43 144.633 22.926C144.633 22.11 144.963 21.45 145.623 20.946C146.283 20.442 147.189 20.1 148.341 19.92L150.807 19.56V19.182C150.807 18.654 150.675 18.258 150.411 17.994C150.147 17.73 149.721 17.598 149.133 17.598C148.737 17.598 148.413 17.676 148.161 17.832C147.921 17.976 147.729 18.12 147.585 18.264C147.441 18.42 147.345 18.522 147.297 18.57C147.249 18.714 147.159 18.786 147.027 18.786H145.641C145.533 18.786 145.437 18.75 145.353 18.678C145.281 18.606 145.245 18.51 145.245 18.39C145.257 18.09 145.401 17.748 145.677 17.364C145.965 16.98 146.403 16.65 146.991 16.374C147.579 16.098 148.299 15.96 149.151 15.96C150.567 15.96 151.599 16.278 152.247 16.914C152.895 17.55 153.219 18.384 153.219 19.416V25.068C153.219 25.188 153.177 25.29 153.093 25.374C153.021 25.458 152.919 25.5 152.787 25.5H151.329C151.209 25.5 151.107 25.458 151.023 25.374C150.939 25.29 150.897 25.188 150.897 25.068V24.366C150.633 24.75 150.255 25.068 149.763 25.32C149.283 25.56 148.683 25.68 147.963 25.68ZM148.575 23.97C149.235 23.97 149.775 23.754 150.195 23.322C150.615 22.89 150.825 22.26 150.825 21.432V21.054L149.025 21.342C148.329 21.45 147.801 21.624 147.441 21.864C147.093 22.104 146.919 22.398 146.919 22.746C146.919 23.13 147.081 23.43 147.405 23.646C147.729 23.862 148.119 23.97 148.575 23.97ZM155.852 25.5C155.732 25.5 155.63 25.458 155.546 25.374C155.462 25.29 155.42 25.188 155.42 25.068V23.286C155.42 23.166 155.462 23.064 155.546 22.98C155.63 22.884 155.732 22.836 155.852 22.836H157.652C157.772 22.836 157.874 22.884 157.958 22.98C158.042 23.064 158.084 23.166 158.084 23.286V25.068C158.084 25.188 158.042 25.29 157.958 25.374C157.874 25.458 157.772 25.5 157.652 25.5H155.852ZM160.794 28.92C160.674 28.92 160.572 28.878 160.488 28.794C160.404 28.722 160.362 28.62 160.362 28.488V16.572C160.362 16.44 160.404 16.338 160.488 16.266C160.572 16.182 160.674 16.14 160.794 16.14H162.216C162.348 16.14 162.45 16.182 162.522 16.266C162.606 16.338 162.648 16.44 162.648 16.572V17.292C163.32 16.404 164.28 15.96 165.528 15.96C166.74 15.96 167.67 16.344 168.318 17.112C168.966 17.868 169.314 18.894 169.362 20.19C169.374 20.334 169.38 20.544 169.38 20.82C169.38 21.108 169.374 21.324 169.362 21.468C169.314 22.728 168.966 23.748 168.318 24.528C167.67 25.296 166.74 25.68 165.528 25.68C164.316 25.68 163.392 25.254 162.756 24.402V28.488C162.756 28.62 162.714 28.722 162.63 28.794C162.558 28.878 162.456 28.92 162.324 28.92H160.794ZM164.862 23.754C166.158 23.754 166.848 22.956 166.932 21.36C166.944 21.24 166.95 21.06 166.95 20.82C166.95 20.58 166.944 20.4 166.932 20.28C166.848 18.684 166.158 17.886 164.862 17.886C164.166 17.886 163.65 18.108 163.314 18.552C162.978 18.996 162.792 19.542 162.756 20.19L162.738 20.874L162.756 21.576C162.78 22.176 162.966 22.692 163.314 23.124C163.674 23.544 164.19 23.754 164.862 23.754ZM171.851 25.5C171.731 25.5 171.629 25.458 171.545 25.374C171.461 25.29 171.419 25.188 171.419 25.068V13.152C171.419 13.02 171.461 12.918 171.545 12.846C171.629 12.762 171.731 12.72 171.851 12.72H173.345C173.477 12.72 173.579 12.762 173.651 12.846C173.735 12.918 173.777 13.02 173.777 13.152V25.068C173.777 25.188 173.735 25.29 173.651 25.374C173.579 25.458 173.477 25.5 173.345 25.5H171.851Z" fill="#263238"/>
<defs>
<linearGradient id="paint0_linear_1922_32" x1="20" y1="-5.96046e-07" x2="20" y2="40" gradientUnits="userSpaceOnUse">
<stop stop-color="#1A83FF"/>
<stop offset="1" stop-color="#2C5DE5"/>
</linearGradient>
</defs>
</svg>
