<svg width="178" height="32" viewBox="0 0 178 32" fill="none" xmlns="http://www.w3.org/2000/svg">
<g clip-path="url(#clip0)">
<rect width="32" height="32" transform="translate(0 0.00012207)" fill="#2C5DE5"/>
<path fill-rule="evenodd" clip-rule="evenodd" d="M25 4.00012H7V28.0001H25V4.00012ZM22 7.00012H10V25.0001H22V7.00012Z" fill="#8DCAFF"/>
<rect x="15" y="0.00012207" width="2" height="4" fill="#8DCAFF"/>
<rect x="15" y="28.0001" width="2" height="4" fill="#8DCAFF"/>
<rect x="14" y="10.0001" width="4" height="4" rx="2" fill="white"/>
<rect x="13" y="15.0001" width="6" height="10" fill="white"/>
</g>
<path d="M48.248 11.8801H44.072V9.90012H54.764V11.8801H50.588V22.5001H48.248V11.8801ZM70.7005 12.8881L67.1545 22.5001H64.9945L62.5105 15.8761L59.9905 22.5001H57.8305L54.3025 12.8881H56.4265L58.9645 19.9801L61.6105 12.8881H63.5005L66.0925 20.0161L68.7025 12.8881H70.7005ZM76.3038 22.6261C75.3318 22.6261 74.4558 22.4161 73.6758 21.9961C72.8958 21.5761 72.2838 20.9941 71.8398 20.2501C71.4078 19.4941 71.1918 18.6421 71.1918 17.6941C71.1918 16.7461 71.4078 15.9001 71.8398 15.1561C72.2838 14.4121 72.8958 13.8301 73.6758 13.4101C74.4558 12.9901 75.3318 12.7801 76.3038 12.7801C77.2878 12.7801 78.1698 12.9901 78.9498 13.4101C79.7298 13.8301 80.3358 14.4121 80.7678 15.1561C81.2118 15.9001 81.4338 16.7461 81.4338 17.6941C81.4338 18.6421 81.2118 19.4941 80.7678 20.2501C80.3358 20.9941 79.7298 21.5761 78.9498 21.9961C78.1698 22.4161 77.2878 22.6261 76.3038 22.6261ZM76.3038 20.7001C77.1318 20.7001 77.8158 20.4241 78.3558 19.8721C78.8958 19.3201 79.1658 18.5941 79.1658 17.6941C79.1658 16.7941 78.8958 16.0681 78.3558 15.5161C77.8158 14.9641 77.1318 14.6881 76.3038 14.6881C75.4758 14.6881 74.7918 14.9641 74.2518 15.5161C73.7238 16.0681 73.4598 16.7941 73.4598 17.6941C73.4598 18.5941 73.7238 19.3201 74.2518 19.8721C74.7918 20.4241 75.4758 20.7001 76.3038 20.7001ZM82.5954 26.1181C81.6474 26.1181 80.9274 25.9321 80.4354 25.5601L81.0834 23.8861C81.4194 24.1381 81.8574 24.2641 82.3974 24.2641C82.8174 24.2641 83.1354 24.1321 83.3514 23.8681C83.5794 23.6161 83.6934 23.2381 83.6934 22.7341V12.8881H85.9434V22.6801C85.9434 23.7481 85.6494 24.5881 85.0614 25.2001C84.4734 25.8121 83.6514 26.1181 82.5954 26.1181ZM84.8094 11.3041C84.4014 11.3041 84.0594 11.1781 83.7834 10.9261C83.5074 10.6621 83.3694 10.3381 83.3694 9.95412C83.3694 9.57012 83.5074 9.25212 83.7834 9.00012C84.0594 8.73612 84.4014 8.60412 84.8094 8.60412C85.2174 8.60412 85.5594 8.73012 85.8354 8.98212C86.1114 9.22212 86.2494 9.52812 86.2494 9.90012C86.2494 10.2961 86.1114 10.6321 85.8354 10.9081C85.5714 11.1721 85.2294 11.3041 84.8094 11.3041ZM92.566 12.7801C93.982 12.7801 95.062 13.1221 95.806 13.8061C96.562 14.4781 96.94 15.4981 96.94 16.8661V22.5001H94.816V21.3301C94.54 21.7501 94.144 22.0741 93.628 22.3021C93.124 22.5181 92.512 22.6261 91.792 22.6261C91.072 22.6261 90.442 22.5061 89.902 22.2661C89.362 22.0141 88.942 21.6721 88.642 21.2401C88.354 20.7961 88.21 20.2981 88.21 19.7461C88.21 18.8821 88.528 18.1921 89.164 17.6761C89.812 17.1481 90.826 16.8841 92.206 16.8841H94.69V16.7401C94.69 16.0681 94.486 15.5521 94.078 15.1921C93.682 14.8321 93.088 14.6521 92.296 14.6521C91.756 14.6521 91.222 14.7361 90.694 14.9041C90.178 15.0721 89.74 15.3061 89.38 15.6061L88.498 13.9681C89.002 13.5841 89.608 13.2901 90.316 13.0861C91.024 12.8821 91.774 12.7801 92.566 12.7801ZM92.26 20.9881C92.824 20.9881 93.322 20.8621 93.754 20.6101C94.198 20.3461 94.51 19.9741 94.69 19.4941V18.3781H92.368C91.072 18.3781 90.424 18.8041 90.424 19.6561C90.424 20.0641 90.586 20.3881 90.91 20.6281C91.234 20.8681 91.684 20.9881 92.26 20.9881ZM114.646 12.8881L111.1 22.5001H108.94L106.456 15.8761L103.936 22.5001H101.776L98.2478 12.8881H100.372L102.91 19.9801L105.556 12.8881H107.446L110.038 20.0161L112.648 12.8881H114.646ZM116.193 12.8881H118.443V22.5001H116.193V12.8881ZM117.327 11.3041C116.919 11.3041 116.577 11.1781 116.301 10.9261C116.025 10.6621 115.887 10.3381 115.887 9.95412C115.887 9.57012 116.025 9.25212 116.301 9.00012C116.577 8.73612 116.919 8.60412 117.327 8.60412C117.735 8.60412 118.077 8.73012 118.353 8.98212C118.629 9.22212 118.767 9.52812 118.767 9.90012C118.767 10.2961 118.629 10.6321 118.353 10.9081C118.089 11.1721 117.747 11.3041 117.327 11.3041ZM126.85 12.7801C128.062 12.7801 129.034 13.1341 129.766 13.8421C130.498 14.5501 130.864 15.6001 130.864 16.9921V22.5001H128.614V17.2801C128.614 16.4401 128.416 15.8101 128.02 15.3901C127.624 14.9581 127.06 14.7421 126.328 14.7421C125.5 14.7421 124.846 14.9941 124.366 15.4981C123.886 15.9901 123.646 16.7041 123.646 17.6401V22.5001H121.396V12.8881H123.538V14.1301C123.91 13.6861 124.378 13.3501 124.942 13.1221C125.506 12.8941 126.142 12.7801 126.85 12.7801ZM143.22 9.14412V22.5001H141.06V21.2581C140.688 21.7141 140.226 22.0561 139.674 22.2841C139.134 22.5121 138.534 22.6261 137.874 22.6261C136.95 22.6261 136.116 22.4221 135.372 22.0141C134.64 21.6061 134.064 21.0301 133.644 20.2861C133.224 19.5301 133.014 18.6661 133.014 17.6941C133.014 16.7221 133.224 15.8641 133.644 15.1201C134.064 14.3761 134.64 13.8001 135.372 13.3921C136.116 12.9841 136.95 12.7801 137.874 12.7801C138.51 12.7801 139.092 12.8881 139.62 13.1041C140.148 13.3201 140.598 13.6441 140.97 14.0761V9.14412H143.22ZM138.144 20.7001C138.684 20.7001 139.17 20.5801 139.602 20.3401C140.034 20.0881 140.376 19.7341 140.628 19.2781C140.88 18.8221 141.006 18.2941 141.006 17.6941C141.006 17.0941 140.88 16.5661 140.628 16.1101C140.376 15.6541 140.034 15.3061 139.602 15.0661C139.17 14.8141 138.684 14.6881 138.144 14.6881C137.604 14.6881 137.118 14.8141 136.686 15.0661C136.254 15.3061 135.912 15.6541 135.66 16.1101C135.408 16.5661 135.282 17.0941 135.282 17.6941C135.282 18.2941 135.408 18.8221 135.66 19.2781C135.912 19.7341 136.254 20.0881 136.686 20.3401C137.118 20.5801 137.604 20.7001 138.144 20.7001ZM149.836 12.7801C151.252 12.7801 152.332 13.1221 153.076 13.8061C153.832 14.4781 154.21 15.4981 154.21 16.8661V22.5001H152.086V21.3301C151.81 21.7501 151.414 22.0741 150.898 22.3021C150.394 22.5181 149.782 22.6261 149.062 22.6261C148.342 22.6261 147.712 22.5061 147.172 22.2661C146.632 22.0141 146.212 21.6721 145.912 21.2401C145.624 20.7961 145.48 20.2981 145.48 19.7461C145.48 18.8821 145.798 18.1921 146.434 17.6761C147.082 17.1481 148.096 16.8841 149.476 16.8841H151.96V16.7401C151.96 16.0681 151.756 15.5521 151.348 15.1921C150.952 14.8321 150.358 14.6521 149.566 14.6521C149.026 14.6521 148.492 14.7361 147.964 14.9041C147.448 15.0721 147.01 15.3061 146.65 15.6061L145.768 13.9681C146.272 13.5841 146.878 13.2901 147.586 13.0861C148.294 12.8821 149.044 12.7801 149.836 12.7801ZM149.53 20.9881C150.094 20.9881 150.592 20.8621 151.024 20.6101C151.468 20.3461 151.78 19.9741 151.96 19.4941V18.3781H149.638C148.342 18.3781 147.694 18.8041 147.694 19.6561C147.694 20.0641 147.856 20.3881 148.18 20.6281C148.504 20.8681 148.954 20.9881 149.53 20.9881ZM157.817 22.6261C157.409 22.6261 157.061 22.4881 156.773 22.2121C156.485 21.9241 156.341 21.5641 156.341 21.1321C156.341 20.6881 156.479 20.3281 156.755 20.0521C157.043 19.7761 157.397 19.6381 157.817 19.6381C158.237 19.6381 158.585 19.7761 158.861 20.0521C159.149 20.3281 159.293 20.6881 159.293 21.1321C159.293 21.5641 159.149 21.9241 158.861 22.2121C158.573 22.4881 158.225 22.6261 157.817 22.6261ZM166.82 12.7801C167.756 12.7801 168.59 12.9841 169.322 13.3921C170.066 13.8001 170.648 14.3761 171.068 15.1201C171.488 15.8641 171.698 16.7221 171.698 17.6941C171.698 18.6661 171.488 19.5301 171.068 20.2861C170.648 21.0301 170.066 21.6061 169.322 22.0141C168.59 22.4221 167.756 22.6261 166.82 22.6261C165.524 22.6261 164.498 22.1941 163.742 21.3301V25.9921H161.492V12.8881H163.634V14.1481C164.006 13.6921 164.462 13.3501 165.002 13.1221C165.554 12.8941 166.16 12.7801 166.82 12.7801ZM166.568 20.7001C167.396 20.7001 168.074 20.4241 168.602 19.8721C169.142 19.3201 169.412 18.5941 169.412 17.6941C169.412 16.7941 169.142 16.0681 168.602 15.5161C168.074 14.9641 167.396 14.6881 166.568 14.6881C166.028 14.6881 165.542 14.8141 165.11 15.0661C164.678 15.3061 164.336 15.6541 164.084 16.1101C163.832 16.5661 163.706 17.0941 163.706 17.6941C163.706 18.2941 163.832 18.8221 164.084 19.2781C164.336 19.7341 164.678 20.0881 165.11 20.3401C165.542 20.5801 166.028 20.7001 166.568 20.7001ZM173.831 9.14412H176.081V22.5001H173.831V9.14412Z" fill="#263238"/>
<defs>
<clipPath id="clip0">
<rect width="32" height="32" fill="white" transform="translate(0 0.00012207)"/>
</clipPath>
</defs>
</svg>
