<svg width="38" height="38" viewBox="0 0 38 38" fill="none" xmlns="http://www.w3.org/2000/svg">
<circle opacity="0.3" cx="19" cy="19" r="19" transform="rotate(-180 19 19)" fill="#1A83FF"/>
<circle cx="19" cy="19" r="16" fill="#1A83FF"/>
<path fill-rule="evenodd" clip-rule="evenodd" d="M19 26.7981L27.4453 21.1679C27.9048 20.8616 28.5257 20.9858 28.8321 21.4453C29.1165 21.872 29.0298 22.4378 28.648 22.7618L28.5547 22.8321L19.5547 28.8321C19.2561 29.0311 18.8772 29.0532 18.5608 28.8984L18.4453 28.8321L9.4453 22.8321C8.98577 22.5257 8.8616 21.9048 9.16795 21.4453C9.45242 21.0186 10.0081 20.881 10.4539 21.1089L10.5547 21.1679L19 26.7981L27.4453 21.1679L19 26.7981ZM19.5547 9.16795L28.5547 15.1679C29.1484 15.5638 29.1484 16.4362 28.5547 16.8321L19.5547 22.8321C19.2188 23.056 18.7812 23.056 18.4453 22.8321L9.4453 16.8321C8.85157 16.4362 8.85157 15.5638 9.4453 15.1679L18.4453 9.16795C18.7812 8.94402 19.2188 8.94402 19.5547 9.16795ZM19 11.2019L11.8028 16L19 20.7981L26.1972 16L19 11.2019Z" fill="white"/>
</svg>
